<?xml version="1.0" encoding="utf-8"?>
<!-- Generator: Adobe Illustrator 23.0.3, SVG Export Plug-In . SVG Version: 6.00 Build 0)  -->
<svg version="1.1" xmlns="http://www.w3.org/2000/svg" xmlns:xlink="http://www.w3.org/1999/xlink" x="0px" y="0px"
	 viewBox="0 0 100 95.7" style="enable-background:new 0 0 100 95.7;" xml:space="preserve">
<g id="Capa_2">
</g>
<g id="Capa_1">
	<g>
		<path d="M68.3,65.4c-1.2,2.1-2.5,4.1-3.8,6c8.4,1.9,13.4,5.2,13.4,7.7c0,3.7-11.1,9.3-27.9,9.3s-27.9-5.6-27.9-9.3
			c0-2.5,5-5.7,13.4-7.7c-1.3-1.9-2.6-3.9-3.8-6c-9.6,2.5-16.5,7-16.5,13.7c0,10.6,17.5,16.2,34.8,16.2s34.8-5.6,34.8-16.2
			C84.8,72.4,77.9,67.9,68.3,65.4z"/>
		<path d="M53.1,76.3c7.1-10.5,24.1-36.8,24.1-48.7C77.2,12.5,65,0.3,50,0.3S22.7,12.5,22.7,27.6c0,11.9,17.1,38.2,24.2,48.7
			C48.4,78.4,51.6,78.4,53.1,76.3z M37.3,27.6c0-7,5.7-12.7,12.7-12.7s12.7,5.7,12.7,12.7S57,40.2,50,40.2S37.3,34.5,37.3,27.6z"/>
	</g>
</g>
</svg>
