<?xml version="1.0" encoding="utf-8"?>
<!-- Generator: Adobe Illustrator 23.0.3, SVG Export Plug-In . SVG Version: 6.00 Build 0)  -->
<svg version="1.1" id="Capa_1" xmlns="http://www.w3.org/2000/svg" xmlns:xlink="http://www.w3.org/1999/xlink" x="0px" y="0px"
	 viewBox="0 0 86.5 77.5" style="enable-background:new 0 0 86.5 77.5;" xml:space="preserve">
<title>20</title>
<g>
	<path d="M35,54c-5.2-0.1-9.5,4-9.6,9.2c-0.1,5.2,4,9.5,9.2,9.6c5.2,0.1,9.5-4,9.6-9.2c0-0.1,0-0.2,0-0.3c0.1-5.1-4-9.2-9.1-9.3
		C35.1,54,35.1,54,35,54z"/>
	<path d="M63.7,54c-5.2-0.2-9.5,3.9-9.7,9.1c-0.2,5.2,3.9,9.5,9.1,9.7s9.5-3.9,9.7-9.1c0-0.1,0-0.3,0-0.4
		C72.9,58.2,68.8,54.1,63.7,54C63.7,54,63.7,54,63.7,54z"/>
	<path d="M80.8,14.8H21.5l-2.6-8.3c-0.4-1.3-1.5-2.2-2.8-2.2H2.4v6h11.4l11.9,38.2c0.4,1.2,1.5,2.1,2.8,2.1h43.3
		c1.3,0,2.5-0.9,2.9-2.1l9-29.8c0.5-1.6-0.4-3.3-2-3.8C81.5,14.9,81.2,14.8,80.8,14.8z"/>
</g>
</svg>
