<?xml version="1.0" encoding="utf-8"?>
<!-- Generator: Adobe Illustrator 23.0.3, SVG Export Plug-In . SVG Version: 6.00 Build 0)  -->
<svg version="1.1" id="Capa_1" xmlns="http://www.w3.org/2000/svg" xmlns:xlink="http://www.w3.org/1999/xlink" x="0px" y="0px"
	 viewBox="0 0 100 71.6" style="enable-background:new 0 0 100 71.6;" xml:space="preserve">
<path d="M57.3,38.6L89.7,6.2c-2-1.1-4.5-1.7-7.5-1.7H17.9c-3.1,0-5.6,0.6-7.5,1.7l32.4,32.4C47.7,43.6,52.3,43.6,57.3,38.6z"/>
<path d="M93.3,9.8L66.5,36.7l26.8,26.8c1.1-2,1.7-4.5,1.7-7.5V17.4C95,14.3,94.4,11.8,93.3,9.8z"/>
<path d="M60.9,42.3c-3.5,3.5-7.2,5.3-10.9,5.3c-3.7,0-7.4-1.8-10.9-5.3l-1.9-1.9L10.3,67.1c2,1.1,4.5,1.7,7.5,1.7h64.3
	c3.1,0,5.6-0.6,7.5-1.7L62.9,40.3L60.9,42.3z"/>
<path d="M6.7,9.8c-1.1,2-1.7,4.5-1.7,7.5V56c0,3.1,0.6,5.6,1.7,7.5l26.8-26.8L6.7,9.8z"/>
</svg>
