<?xml version="1.0" encoding="utf-8"?>
<!-- Generator: Adobe Illustrator 23.0.3, SVG Export Plug-In . SVG Version: 6.00 Build 0)  -->
<svg version="1.1" id="Capa_1" xmlns="http://www.w3.org/2000/svg" xmlns:xlink="http://www.w3.org/1999/xlink" x="0px" y="0px"
	 viewBox="0 0 64 52.2" style="enable-background:new 0 0 64 52.2;" xml:space="preserve">
<path d="M55,36.8l-5.6-5.6c-1-1-2.3-1.5-3.7-1.5c-1.3,0-2.6,0.6-3.4,1.5l-3.5,3.5c-0.1,0.1-0.3,0.2-0.5,0.1
	c-6.6-3.4-11.9-8.6-15.2-15.2c-0.1-0.2-0.1-0.3,0.1-0.5l3.5-3.5c1-1,1.5-2.3,1.5-3.7c0-1.3-0.6-2.6-1.5-3.4l-5.6-5.6
	c-1-1-2.3-1.5-3.7-1.5c-1.3,0-2.6,0.6-3.4,1.5l-3,3c-4.3,4.3-4.7,11-1.1,15.9l0,0C17.2,31.6,26,40.4,36.1,48
	c2.2,1.6,4.8,2.4,7.3,2.4c3.1,0,6.3-1.2,8.6-3.5l3-3c1-1,1.5-2.3,1.5-3.7C56.5,38.9,55.9,37.7,55,36.8z"/>
</svg>
