<?xml version="1.0" encoding="utf-8"?>
<!-- Generator: Adobe Illustrator 23.0.3, SVG Export Plug-In . SVG Version: 6.00 Build 0)  -->
<svg version="1.1" id="Capa_1" xmlns="http://www.w3.org/2000/svg" xmlns:xlink="http://www.w3.org/1999/xlink" x="0px" y="0px"
	 viewBox="0 0 100 91" style="enable-background:new 0 0 100 91;" xml:space="preserve">
<path d="M60.2,12.9C48.3,1,29,1,17.1,12.9s-11.9,31.1,0,43C28,66.8,45.1,67.7,57,58.7l3.3,3.3l-1.1,1.1L82,85.8
	c2.2,2.2,5.9,2.2,8.1,0s2.2-5.9,0-8.1L67.3,55l-1.1,1.1l-3.3-3.3C72,40.9,71.1,23.8,60.2,12.9z M22.8,50.3c-8.8-8.8-8.8-23,0-31.8
	s23-8.8,31.8,0s8.8,23,0,31.8S31.6,59.1,22.8,50.3z"/>
</svg>
