<?xml version="1.0" encoding="utf-8"?>
<!-- Generator: Adobe Illustrator 23.0.3, SVG Export Plug-In . SVG Version: 6.00 Build 0)  -->
<svg version="1.1"
	 id="Capa_1" xmlns:cc="http://creativecommons.org/ns#" xmlns:dc="http://purl.org/dc/elements/1.1/" xmlns:inkscape="http://www.inkscape.org/namespaces/inkscape" xmlns:rdf="http://www.w3.org/1999/02/22-rdf-syntax-ns#" xmlns:sodipodi="http://sodipodi.sourceforge.net/DTD/sodipodi-0.dtd" xmlns:svg="http://www.w3.org/2000/svg"
	 xmlns="http://www.w3.org/2000/svg" xmlns:xlink="http://www.w3.org/1999/xlink" x="0px" y="0px" viewBox="0 0 100 85.5"
	 style="enable-background:new 0 0 100 85.5;" xml:space="preserve">
<g transform="translate(0,-952.36218)">
	<path d="M21,955.6l-11,2l5,26l11-2l-2-10.5c2.6-0.7,5.2-1.3,7.8-1.8c-0.7,9,0.5,15.7,6.2,23.2l5,15l-8,12l-13,8.9
		c0,2.1-0.1,2.6,1,4c1,1,4,1,5,1l12-9l10-11c7-1,10,0,14,3l0.1,13c-0.1,2.2,2.3,3.9,3.9,4c1.5,0,3.3-1.4,4-3l-0.3-15.2
		c0.2-1.9-0.7-3.3-2-4.1l-10.8-5.7c0.9-4,1.7-7.8,2-13c7.5-7.5,8.8-14.1,7.2-23c2.6,0.5,5.2,1.1,7.8,1.8l-2,10.2l11,2l5-26l-11-2
		l-2.3,11.8c-8.9-2.4-18.1-3.6-27.2-3.6c-8.8,0-17.7,1.1-26.3,3.3L21,955.6L21,955.6z M49.5,967.8c4.1,0,8.3,0.3,12.4,0.8
		c1.1,8.4,0.8,15.1-7.1,21.2h-10c-6.6-6.1-6.8-11.9-6.8-21.3C41.8,968,45.6,967.8,49.5,967.8z M49.5,975.6c-2.5,0.3-4.5,2.4-4.5,5
		c0,2.8,2.2,5,5,5s5-2.2,5-5s-2.2-5-5-5C49.8,975.6,49.7,975.6,49.5,975.6z"/>
</g>
</svg>
