<?xml version="1.0" encoding="utf-8"?>
<!-- Generator: Adobe Illustrator 23.0.3, SVG Export Plug-In . SVG Version: 6.00 Build 0)  -->
<svg version="1.1" id="Capa_1" xmlns="http://www.w3.org/2000/svg" xmlns:xlink="http://www.w3.org/1999/xlink" x="0px" y="0px"
	 viewBox="0 0 321 324.3" style="enable-background:new 0 0 321 324.3;" xml:space="preserve">
<style type="text/css">
	.st0{fill-rule:evenodd;clip-rule:evenodd;}
</style>
<g>
	<path class="st0" d="M161,0c88,0,160,72,160,161c0,44-18,85-48,114c-17-31-46-53-81-62c23-12,38-35,38-61c0-38-31-69-69-69
		c-39,0-69,31-69,69c0,26,15,49,37,61c-34,9-64,31-81,62C18,246,0,205,0,161C0,72,72,0,161,0z M258,288c-27,21-61,33-97,33
		c-37,0-71-12-98-33c19-36,56-60,98-60C202,228,239,252,258,288z M161,102c-28,0-50,22-50,50c0,27,22,49,50,49c27,0,49-22,49-49
		C210,124,188,102,161,102z"/>
</g>
</svg>
