<?xml version="1.0" encoding="utf-8"?>
<!-- Generator: Adobe Illustrator 23.0.3, SVG Export Plug-In . SVG Version: 6.00 Build 0)  -->
<svg version="1.1" id="Capa_1" xmlns:sketch="http://www.bohemiancoding.com/sketch/ns"
	 xmlns="http://www.w3.org/2000/svg" xmlns:xlink="http://www.w3.org/1999/xlink" x="0px" y="0px" viewBox="0 0 60 63.7"
	 style="enable-background:new 0 0 60 63.7;" xml:space="preserve">
<style type="text/css">
	.st0{fill-rule:evenodd;clip-rule:evenodd;}
</style>
<title>38 - Whatsapp (Solid)</title>
<desc>Created with Sketch.</desc>
<g sketch:type="MSPage">
	<g transform="translate(-1.000000, 0.000000)" sketch:type="MSLayerGroup">
		<path sketch:type="MSShapeGroup" class="st0" d="M31.5,1.6C15.2,1.6,2,14.8,2,31.1c0,5.1,1.3,10.2,3.9,14.6L1.1,60.3
			c-0.1,0.3,0,0.7,0.2,1c0.2,0.2,0.5,0.3,0.7,0.3c0.1,0,0.2,0,0.3,0l15.9-4.2c4.1,2.1,8.7,3.2,13.4,3.2C47.8,60.6,61,47.3,61,31.1
			S47.8,1.6,31.5,1.6L31.5,1.6z M49.9,44.5l-1.8,1.8c-2.2,2.2-4.7,3.3-7.4,3.3c0,0,0,0,0,0c-3.6,0-7.5-2-11.5-6.1L19.1,33.3
			c-3.2-3.2-5.1-6.3-5.8-9.2c-0.8-3.5,0.2-6.8,3.1-9.7l1.8-1.8c1.1-1.1,3-1.4,4.4-0.7c2.7,1.4,5.4,6,5.7,6.5c0.6,1,0.7,2,0.5,2.8
			c-0.2,0.7-0.6,1.2-1.2,1.6c-0.8,0.7-1.8,1.5-1.9,1.7c-1,1.5-0.9,2.7,0.4,4l8,8c1.3,1.3,2.5,1.4,4,0.4c0.2-0.2,1-1.1,1.7-1.9
			c0.5-0.8,1.3-1.3,2.3-1.3c0.7,0,1.4,0.2,2,0.6c0.5,0.3,5.1,3.1,6.6,5.7C51.3,41.6,51.1,43.3,49.9,44.5L49.9,44.5z"/>
	</g>
</g>
</svg>
